<!DOCTYPE svg PUBLIC "-//W3C//DTD SVG 1.1//EN" "http://www.w3.org/Graphics/SVG/1.1/DTD/svg11.dtd">

<!-- Uploaded to: SVG Repo, www.svgrepo.com, Transformed by: SVG Repo Mixer Tools -->
<svg fill="#B8BAC2" width="800px" height="800px" viewBox="0 0 24 24" xmlns="http://www.w3.org/2000/svg" stroke="#B8BAC2">

<g id="SVGRepo_bgCarrier" stroke-width="0"/>

<g id="SVGRepo_tracerCarrier" stroke-linecap="round" stroke-linejoin="round"/>

<g id="SVGRepo_iconCarrier"> <g data-name="Layer 2"> <g data-name="plus-square"> <rect width="24" height="24" opacity="0"/> <path d="M18 3H6a3 3 0 0 0-3 3v12a3 3 0 0 0 3 3h12a3 3 0 0 0 3-3V6a3 3 0 0 0-3-3zm-3 10h-2v2a1 1 0 0 1-2 0v-2H9a1 1 0 0 1 0-2h2V9a1 1 0 0 1 2 0v2h2a1 1 0 0 1 0 2z"/> </g> </g> </g>

</svg>